# xmcd CD database file
#
# Track frame offsets:
#	150
#	14472
#	28404
#	43422
#	57772
#	71203
#	85580
#	100515
#	114587
#	127794
#	141197
#	156550
#	170370
#	187256
#	197733
#	209491
#	222309
#	229832
#
# Disc length: 3196 seconds
#
# Revision: 0
# Processed by: cddbd v1.5.1PL2 Copyright (c) Steve Scherf et al.
# Submitted via: CDex 1.51
#
DISCID=0f0c7a12
DTITLE=Frank Sinatra - 10 Jazz Legends Vol 1 CD 10
DYEAR=1900
DGENRE=Jazz
TTITLE0=Too romantic
TTITLE1=I'll be seeing you
TTITLE2=Polka dots and moonbams
TTITLE3=I'll never smile again
TTITLE4=Whispering
TTITLE5=Stardust
TTITLE6=Blue skies
TTITLE7=Violets for your furs
TTITLE8=How about you
TTITLE9=Hear my song, Violetta
TTITLE10=The song is you
TTITLE11=Night and day
TTITLE12=I only have eyes for you
TTITLE13=Speak low
TTITLE14=Long ago and far away
TTITLE15=All the things you are
TTITLE16=All of me
TTITLE17=She's funny that way
EXTD=
EXTT0=
EXTT1=
EXTT2=
EXTT3=
EXTT4=
EXTT5=
EXTT6=
EXTT7=
EXTT8=
EXTT9=
EXTT10=
EXTT11=
EXTT12=
EXTT13=
EXTT14=
EXTT15=
EXTT16=
EXTT17=
PLAYORDER=
